HIERARCHY
ROOT hip
{
  OFFSET 0 0 0
  CHANNELS 6 Xposition Yposition Zposition Zrotation Yrotation Xrotation
  JOINT abdomen
  {
    OFFSET 0 20.6881 -0.73152
    CHANNELS 3 Zrotation Xrotation Yrotation
    JOINT chest
    {
      OFFSET 0 11.7043 -0.48768
      CHANNELS 3 Zrotation Xrotation Yrotation
      JOINT neck
      {
        OFFSET 0 22.1894 -2.19456
        CHANNELS 3 Zrotation Xrotation Yrotation
        JOINT head
        {
          OFFSET -0.24384 7.07133 1.2192
          CHANNELS 3 Zrotation Xrotation Yrotation
          JOINT leftEye
          {
            OFFSET 4.14528 8.04674 8.04672
            CHANNELS 3 Zrotation Xrotation Yrotation
            End Site
            {
              OFFSET 1 0 0
            }
          }
          JOINT rightEye
          {
            OFFSET -3.6576 8.04674 8.04672
            CHANNELS 3 Zrotation Xrotation Yrotation
            End Site
            {
              OFFSET 1 0 0
            }
          }
        }
      }
      JOINT rCollar
      {
        OFFSET -2.68224 19.2634 -4.8768
        CHANNELS 3 Zrotation Xrotation Yrotation
        JOINT rShldr
        {
          OFFSET -8.77824 -1.95073 1.46304
          CHANNELS 3 Zrotation Xrotation Yrotation
          JOINT rForeArm
          {
            OFFSET -28.1742 -1.7115 0.48768
            CHANNELS 3 Zrotation Xrotation Yrotation
            JOINT rHand
            {
              OFFSET -22.5879 0.773209 7.07136
              CHANNELS 3 Zrotation Xrotation Yrotation
              JOINT rThumb1
              {
                OFFSET -1.2192 -0.487915 3.41376
                CHANNELS 3 Zrotation Xrotation Yrotation
                JOINT rThumb2
                {
                  OFFSET -3.37035 -0.52449 3.41376
                  CHANNELS 3 Zrotation Xrotation Yrotation
                  End Site
                  {
                    OFFSET -1.78271 -1.18214 1.43049
                  }
                }
              }
              JOINT rIndex1
              {
                OFFSET -7.75947 0.938293 5.60832
                CHANNELS 3 Zrotation Xrotation Yrotation
                JOINT rIndex2
                {
                  OFFSET -2.54057 -0.884171 1.56538
                  CHANNELS 3 Zrotation Xrotation Yrotation
                  End Site
                  {
                    OFFSET -1.62519 -0.234802 1.16502
                  }
                }
              }
              JOINT rMid1
              {
                OFFSET -8.24714 1.18213 3.41376
                CHANNELS 3 Zrotation Xrotation Yrotation
                JOINT rMid2
                {
                  OFFSET -3.10165 -0.590103 1.0647
                  CHANNELS 3 Zrotation Xrotation Yrotation
                  End Site
                  {
                    OFFSET -2.48547 -0.328903 0.83742
                  }
                }
              }
              JOINT rRing1
              {
                OFFSET -8.82822 0.546677 1.51678
                CHANNELS 3 Zrotation Xrotation Yrotation
                JOINT rRing2
                {
                  OFFSET -2.60934 -0.819778 -0.0198488
                  CHANNELS 3 Zrotation Xrotation Yrotation
                  End Site
                  {
                    OFFSET -2.33842 -0.294052 0.168128
                  }
                }
              }
              JOINT rPinky1
              {
                OFFSET -8.27202 -0.0477905 -0.4584
                CHANNELS 3 Zrotation Xrotation Yrotation
                JOINT rPinky2
                {
                  OFFSET -1.82734 -0.647385 -0.700984
                  CHANNELS 3 Zrotation Xrotation Yrotation
                  End Site
                  {
                    OFFSET -1.69225 -0.51767 -0.607171
                  }
                }
              }
            }
          }
        }
      }
      JOINT lCollar
      {
        OFFSET 2.68224 19.2634 -4.8768
        CHANNELS 3 Zrotation Xrotation Yrotation
        JOINT lShldr
        {
          OFFSET 8.77824 -1.95073 1.46304
          CHANNELS 3 Zrotation Xrotation Yrotation
          JOINT lForeArm
          {
            OFFSET 28.1742 -1.7115 0.48768
            CHANNELS 3 Zrotation Xrotation Yrotation
            JOINT lHand
            {
              OFFSET 22.5879 0.773209 7.07136
              CHANNELS 3 Zrotation Xrotation Yrotation
              JOINT lThumb1
              {
                OFFSET 1.2192 -0.487915 3.41376
                CHANNELS 3 Zrotation Xrotation Yrotation
                JOINT lThumb2
                {
                  OFFSET 3.37035 -0.52449 3.41376
                  CHANNELS 3 Zrotation Xrotation Yrotation
                  End Site
                  {
                    OFFSET 1.78271 -1.18214 1.43049
                  }
                }
              }
              JOINT lIndex1
              {
                OFFSET 7.75947 0.938293 5.60832
                CHANNELS 3 Zrotation Xrotation Yrotation
                JOINT lIndex2
                {
                  OFFSET 2.54057 -0.884171 1.56538
                  CHANNELS 3 Zrotation Xrotation Yrotation
                  End Site
                  {
                    OFFSET 1.62519 -0.234802 1.16502
                  }
                }
              }
              JOINT lMid1
              {
                OFFSET 8.24714 1.18213 3.41376
                CHANNELS 3 Zrotation Xrotation Yrotation
                JOINT lMid2
                {
                  OFFSET 3.10165 -0.590103 1.0647
                  CHANNELS 3 Zrotation Xrotation Yrotation
                  End Site
                  {
                    OFFSET 2.48547 -0.328903 0.83742
                  }
                }
              }
              JOINT lRing1
              {
                OFFSET 8.82822 0.546677 1.51678
                CHANNELS 3 Zrotation Xrotation Yrotation
                JOINT lRing2
                {
                  OFFSET 2.60934 -0.819778 -0.0198488
                  CHANNELS 3 Zrotation Xrotation Yrotation
                  End Site
                  {
                    OFFSET 2.33842 -0.294052 0.168128
                  }
                }
              }
              JOINT lPinky1
              {
                OFFSET 8.27202 -0.0477905 -0.4584
                CHANNELS 3 Zrotation Xrotation Yrotation
                JOINT lPinky2
                {
                  OFFSET 1.82734 -0.647385 -0.700984
                  CHANNELS 3 Zrotation Xrotation Yrotation
                  End Site
                  {
                    OFFSET 1.69225 -0.51767 -0.607171
                  }
                }
              }
            }
          }
        }
      }
    }
  }
  JOINT rButtock
  {
    OFFSET -8.77824 4.35084 1.2192
    CHANNELS 3 Zrotation Xrotation Yrotation
    JOINT rThigh
    {
      OFFSET 0 -1.70687 -2.19456
      CHANNELS 3 Zrotation Xrotation Yrotation
      JOINT rShin
      {
        OFFSET 0 -36.8199 0.73152
        CHANNELS 3 Zrotation Xrotation Yrotation
        JOINT rFoot
        {
          OFFSET 0.73152 -45.1104 -5.12064
          CHANNELS 3 Zrotation Xrotation Yrotation
          End Site
          {
            OFFSET -1.1221 -3.69964 12.103
          }
        }
      }
    }
  }
  JOINT lButtock
  {
    OFFSET 8.77824 4.35084 1.2192
    CHANNELS 3 Zrotation Xrotation Yrotation
    JOINT lThigh
    {
      OFFSET 0 -1.70687 -2.19456
      CHANNELS 3 Zrotation Xrotation Yrotation
      JOINT lShin
      {
        OFFSET 0 -36.8199 0.73152
        CHANNELS 3 Zrotation Xrotation Yrotation
        JOINT lFoot
        {
          OFFSET -0.73152 -45.1104 -5.12064
          CHANNELS 3 Zrotation Xrotation Yrotation
          End Site
          {
            OFFSET 1.1221 -3.69964 12.103
          }
        }
      }
    }
  }
}
MOTION
Frames:	7
Frame Time:	0.03333
0.0 0.0 0.0 0.0 0.0 0.0 0.0 0.0 0.0 0.0 0.0 0.0 0.0 0.0 0.0 0.0 0.0 0.0 0.0 0.0 0.0 0.0 0.0 0.0 0.0 0.0 0.0 0.0 0.0 0.0 0.0 0.0 0.0 0.0 0.0 0.0 0.0 0.0 0.0 0.0 0.0 0.0 0.0 0.0 0.0 0.0 0.0 0.0 0.0 0.0 0.0 0.0 0.0 0.0 0.0 0.0 0.0 0.0 0.0 0.0 0.0 0.0 0.0 0.0 0.0 0.0 0.0 0.0 0.0 0.0 0.0 0.0 0.0 0.0 0.0 0.0 0.0 0.0 0.0 0.0 0.0 0.0 0.0 0.0 0.0 0.0 0.0 0.0 0.0 0.0 0.0 0.0 0.0 0.0 0.0 0.0 0.0 0.0 0.0 0.0 0.0 0.0 0.0 0.0 0.0 0.0 0.0 0.0 0.0 0.0 0.0 0.0 0.0 0.0 0.0 0.0 0.0 0.0 0.0 0.0 0.0 0.0 0.0 0.0 0.0 0.0 0.0 0.0 0.0 0.0 0.0 0.0
-0.0475 63.5078 -0.1739 -0.158221 22.742174 -0.964393 -2.565959 -0.264665 95.964775 2.392476 -14.300454 -173.180501 -10.204153 -16.666488 -55.4415 40.648218 42.14427 116.354529 -123.340645 -11.256689 -20.718688 -38.151931 3.888572 -11.213169 88.689341 -36.653002 -1.076553 -157.536382 46.592775 162.003077 16.281991 -55.548511 136.776063 -176.620168 -1.06401 30.31176 4.129986 3.869233 45.933007 167.805309 -34.030285 -125.251465 -93.016991 49.053621 0.253267 11.516521 14.378187 -170.631052 125.609482 45.26534 -116.835163 -168.579522 -18.776644 88.304022 136.061755 41.954957 -88.315848 -125.5034 24.191486 175.120365 81.437549 -4.44958 -43.212013 -14.421721 43.985409 -21.773008 -85.792365 -4.301112 -2.432577 174.443113 -17.113764 -171.745103 18.893576 -75.851034 -136.909522 -176.90619 29.259055 -79.404434 -1.316947 -14.632779 -21.03216 -132.627578 -7.750692 144.900641 -121.496155 -11.600781 -123.999372 -159.943195 29.815228 135.156979 17.155861 0.595289 140.88745 -29.201633 62.686782 -10.096652 84.282758 28.631672 95.922231 11.708812 -32.451802 55.256078 -41.276902 5.38453 67.862298 145.982126 9.052177 151.298611 -47.901826 -7.610879 -88.152508 -5.381836 49.473519 -53.329691 -6.615166 -3.480701 -68.761365 71.772195 3.336624 -96.030858 39.639804 -34.428388 42.504071 -16.608696 47.854679 -152.767491 4.852701 -1.11559 82.892402 73.852049 7.172168 -100.709228
0.9148 59.1576 -1.7271 0.235259 -41.067438 5.441999 -6.171616 12.587533 155.014371 -11.182311 4.017474 -154.97338 -8.350215 38.664675 -174.380047 -5.394505 53.679264 173.651488 5.565691 0.589055 12.073699 42.384405 3.16267 8.145468 -155.258168 18.638948 149.442405 106.955153 -61.163191 138.343953 161.950146 46.217865 82.436118 179.546147 5.994405 135.814177 -1.065884 -3.569745 0.221971 8.915935 -15.701716 -13.973609 -109.661299 33.954567 96.336555 -14.927614 61.751041 2.828779 -0.652581 -55.457241 -14.117913 -22.241551 81.272551 32.084448 -147.000601 11.940758 174.306642 -150.87831 -5.852648 177.646882 -122.344156 -43.194625 -96.456224 -136.706509 62.070363 -118.670203 144.802146 -61.21304 170.181985 -101.922852 44.235275 97.383457 167.434448 -17.914189 -66.265174 -166.764652 -24.361632 -134.890421 170.29327 15.725112 -93.891346 142.344411 17.745342 -66.993786 178.514653 -6.303571 -111.244255 178.098751 -0.056566 -118.732222 161.489823 -5.995871 -141.497607 155.715858 -13.012242 -153.949341 -16.421221 -26.307908 -8.541702 163.052434 -20.209706 -178.748698 176.549635 67.645367 129.128322 39.498536 -43.613975 53.489422 -178.85458 66.488804 -1.551511 152.498098 17.069997 -83.795632 -83.94018 1.760977 -78.074876 -43.392453 40.789162 177.884678 7.332544 0.251864 4.250964 33.364826 -44.678542 -90.060714 -70.152553 -27.573816 98.046157 -111.456199 -26.532754 -2.783607
1.7372999999999998 60.573699999999995 -1.9472 3.9072 -38.340249 2.82624 -1.020158 21.199667 -177.076865 -3.132103 12.285775 175.207706 -15.833192 30.347548 -89.525478 50.311347 11.553402 84.049273 -160.439194 5.874309 33.151105 0.027406 0.009348 37.669449 -144.86606 38.647155 140.842791 -46.139531 13.932313 38.952351 -168.080312 -30.192902 -93.945065 -11.049553 -1.727671 -7.990029 -5.215558 3.600857 4.044888 -100.269872 -44.785758 156.702455 6.501976 -18.590103 -15.888929 -13.38165 25.535283 12.014388 -124.411602 53.314105 108.424536 135.813015 -51.533765 98.048118 -1.387133 -41.410096 -2.098171 -148.73648 -40.376556 -175.148899 -136.825796 -55.838511 -107.861837 -133.053537 -17.5032 -100.419511 151.250079 20.201462 -161.965307 50.853541 2.052745 -4.462397 1.540523 -3.876601 125.805498 -167.975776 -8.748267 -141.531493 27.765229 10.547988 20.189184 105.896377 -19.558095 -70.368385 175.643188 -20.440773 -129.813555 178.284817 23.219481 -124.923569 94.532655 78.828987 -64.391638 2.531535 -43.575192 -28.967597 -68.362305 83.085823 70.003554 96.804585 50.796338 -67.949702 121.626082 -14.706582 95.797507 106.137107 -7.581272 94.257236 -44.227163 32.587545 -29.60293 56.88234 -60.14596 93.896747 81.239854 27.658822 -157.424448 80.100677 44.184965 22.499653 13.821231 -0.744263 0.887931 31.955432 -45.156894 -78.349559 -81.623474 -25.295902 6.696543 73.23265 -63.877507 152.341621
2.0779 58.3206 -0.4294 5.754782 -39.766657 2.079937 -1.457119 31.192618 -1.483512 5.737 -20.125498 4.193284 -10.899599 30.489361 -61.796634 47.407522 -15.848688 70.038839 172.706337 -3.471653 50.86074 -13.66344 -1.967709 16.314837 -174.431369 -77.915399 168.667942 91.759867 54.205357 -92.809962 148.391749 -16.164524 31.554827 -170.904749 16.366068 138.351781 -3.998217 -8.098885 -4.174808 25.38851 0.750087 -21.869876 11.583641 -37.57007 -6.765777 6.387001 -39.908379 -36.418185 -40.264008 29.243886 36.281809 32.281237 45.839636 -14.464042 -17.546582 66.385326 27.704378 -55.323546 87.693397 51.875049 -171.004802 13.026994 -147.058253 -42.535041 20.979241 42.685538 151.708062 -45.36129 -173.612643 -137.035048 32.615102 136.140757 175.367201 13.780684 -44.163876 -176.615544 4.272645 -148.590559 125.841153 59.677821 -63.127516 15.715823 -48.239808 -7.193433 154.778196 46.170128 -101.543917 -173.125154 23.415899 -81.657817 -173.460143 12.821539 -150.143107 27.468827 -32.287162 5.989791 -147.210646 68.56103 145.232908 152.78681 46.480053 -136.081226 156.790887 -7.065887 126.786608 138.643162 -62.633345 82.599277 -45.916084 30.615822 -39.817458 73.510853 -56.912839 176.133651 88.576723 -53.481049 -8.326786 -26.081171 -3.194032 -84.575496 -158.450801 71.134569 -15.768078 -159.355849 18.099382 72.463622 87.37243 3.592135 16.075302 -169.892901 2.846944 82.607818
2.1255 55.7754 1.4524000000000001 7.309303 -41.008375 2.054789 -5.99037 29.184905 -27.269367 16.091805 -11.637325 34.945826 3.035865 27.955796 12.139905 -20.004677 -41.174252 -13.167894 -165.854738 9.24161 66.162634 4.341028 0.24051 6.339316 -1.755298 -38.63772 -0.689643 31.846699 -28.651487 -36.132941 144.268429 -83.524661 6.856492 173.244364 -17.058958 142.82383 -4.227246 11.710024 -7.205391 -129.501898 -54.288388 110.427794 -134.546167 34.129533 92.230667 -172.755705 -3.067199 67.388803 -159.107631 2.485979 122.286801 1.286952 7.111985 22.314449 -126.352287 -48.716359 -134.482843 -153.849796 -3.930689 165.706034 -174.215613 75.716459 -162.381974 -134.556662 -35.537224 173.058306 -3.881603 21.691913 -3.59518 136.944892 -33.486675 -141.30715 -16.40375 -55.814212 125.728243 170.855042 9.597801 -144.388261 -171.389234 -22.731211 -102.721881 116.695388 21.024016 -95.892259 20.682865 18.775017 10.691736 -6.150692 10.502084 -33.621062 144.742474 40.975112 -109.338121 -20.276033 -1.556264 -35.369878 9.450824 -34.153195 29.813155 -0.004043 -3.946807 3.040695 127.278208 -3.611625 137.203347 155.669255 27.387666 161.873719 -29.822747 15.461239 -34.610935 43.788932 -69.821333 149.696409 95.026857 -38.371619 10.361497 -37.745484 -36.526275 -109.856027 -14.424363 0.501651 -4.815624 55.654793 -41.473468 83.609141 84.563223 31.451585 11.452053 -30.977 -74.241908 -117.74486
1.9968 52.9973 2.4316 6.834986 -41.444813 3.338144 -7.452195 27.311916 -22.416627 14.763608 -11.675029 33.888342 12.843784 47.068421 136.402917 -44.687552 50.123038 -103.275811 -95.525641 14.83977 16.325295 12.712268 0.324492 2.912427 -3.116285 -52.941204 -6.71093 118.673502 50.942665 -77.574405 -12.634132 -18.411029 95.346709 -3.554178 12.439486 2.577828 7.333517 -5.869459 -5.097925 38.392989 -0.379477 -20.910733 -16.662872 -24.36922 -9.062772 38.355296 61.766143 -3.277106 47.857488 -67.170276 21.558654 -152.332869 -11.056377 138.475609 -151.704024 47.1943 161.43689 -116.776188 19.141737 148.497803 4.492785 60.022667 19.169421 -18.716614 78.721276 101.580459 78.153168 -83.819555 111.781072 99.213609 -45.733529 112.963912 170.82841 -19.1011 74.47081 13.835865 -9.670258 5.119743 167.804585 -11.000107 -89.222296 -15.738704 -21.617831 5.729432 -16.565299 -61.816628 19.74064 -37.283328 8.592596 8.489998 45.045592 51.333767 -41.275029 104.700071 -77.403246 152.822243 112.433743 -3.02104 160.18229 115.568395 40.855975 -174.986163 -29.325696 60.433686 -31.879384 132.631273 12.939747 120.788878 -37.189228 21.44644 -34.107869 63.236302 -71.568376 130.829973 100.811617 -5.666276 66.699256 -111.414619 -12.546677 -170.986082 -151.64829 73.634898 -25.307914 -164.37858 18.227928 94.699362 88.432742 -20.994316 1.333058 -107.328125 55.396055 6.42997
